<?xml version="1.0" encoding="iso-8859-1"?>
<!-- Generator: Adobe Illustrator 19.0.0, SVG Export Plug-In . SVG Version: 6.00 Build 0)  -->
<svg version="1.1" id="Layer_1" xmlns="http://www.w3.org/2000/svg" xmlns:xlink="http://www.w3.org/1999/xlink" x="0px" y="0px"
	 viewBox="0 0 512 512" style="enable-background:new 0 0 512 512;" xml:space="preserve">
<path style="fill:#D6CED1;" d="M370.618,180.761v-55.273c0-4.82-3.908-8.727-8.727-8.727c-4.82,0-8.727,3.907-8.727,8.727v64
	c0,4.82,3.907,8.727,8.727,8.727H396.8v-17.455H370.618z"/>
<rect x="385.164" y="172.032" style="fill:#C2B8B9;" width="103.564" height="46.545"/>
<rect x="118.004" y="409.1" style="fill:#8B7E7F;" width="79.337" height="82.095"/>
<line style="fill:none;stroke:#000000;stroke-width:15;stroke-linecap:round;stroke-linejoin:round;stroke-miterlimit:10;" x1="280.436" y1="374.191" x2="32.582" y2="374.191"/>
<path style="fill:#463836;" d="M315.345,241.534c0-12.8-10.473-23.273-23.273-23.273h-268.8C10.473,218.261,0,228.734,0,241.534
	v132.655l157.673,23.273l157.673-23.273V241.534z"/>
<path style="fill:#C2B8B9;" d="M0,374.188v23.273c0,12.8,10.473,23.273,23.273,23.273h268.8c12.8,0,23.273-10.473,23.273-23.273
	v-23.273H0z"/>
<rect x="361.891" y="218.578" style="fill:#605353;" width="150.109" height="281.332"/>
<circle style="fill:#C2B8B9;" cx="436.945" cy="442.892" r="17.455"/>
<circle style="fill:#FFD24D;" cx="476.509" cy="347.159" r="8.727"/>
<g>
	<path style="fill:#463836;" d="M477.091,273.851H396.8c-4.82,0-8.727-3.907-8.727-8.727c0-4.82,3.907-8.727,8.727-8.727h80.291
		c4.82,0,8.727,3.908,8.727,8.727C485.818,269.944,481.911,273.851,477.091,273.851z"/>
	<path style="fill:#463836;" d="M477.091,320.397H396.8c-4.82,0-8.727-3.908-8.727-8.727c0-4.82,3.907-8.727,8.727-8.727h80.291
		c4.82,0,8.727,3.908,8.727,8.727C485.818,316.489,481.911,320.397,477.091,320.397z"/>
</g>
<path style="fill:#FEE191;" d="M312.522,84.846c-2.233,0-4.467-0.852-6.171-2.557c-3.408-3.408-3.408-8.933,0-12.342
	c14.813-14.814,34.538-22.973,55.539-22.973s40.726,8.158,55.539,22.973c3.408,3.408,3.408,8.934,0,12.343
	c-3.408,3.407-8.934,3.408-12.342,0c-11.518-11.518-26.858-17.861-43.198-17.861c-16.339,0-31.68,6.343-43.198,17.861
	C316.99,83.994,314.755,84.846,312.522,84.846z"/>
<path style="fill:#FFF1CD;" d="M435.945,60.161c-2.233,0-4.467-0.852-6.171-2.557c-37.43-37.43-98.333-37.431-135.765,0
	c-3.408,3.408-8.934,3.408-12.342,0c-3.408-3.408-3.408-8.934,0-12.342c44.237-44.236,116.214-44.236,160.449,0
	c3.408,3.408,3.408,8.933,0,12.342C440.412,59.31,438.178,60.161,435.945,60.161z"/>
<path style="fill:#FFD24D;" d="M386.575,109.531c-2.233,0-4.467-0.852-6.171-2.557c-4.945-4.945-11.52-7.668-18.513-7.668
	s-13.568,2.723-18.513,7.668c-3.408,3.408-8.934,3.408-12.342,0c-3.408-3.408-3.408-8.933,0-12.342
	c17.014-17.015,44.698-17.015,61.711,0c3.408,3.408,3.408,8.933,0,12.342C391.042,108.678,388.809,109.531,386.575,109.531z"/>
<path style="fill:#C2B8B9;" d="M252.879,499.913H62.466c-4.82,0-8.727-3.908-8.727-8.727c0-4.82,3.907-8.727,8.727-8.727h190.413
	c4.82,0,8.727,3.908,8.727,8.727C261.606,496.006,257.699,499.913,252.879,499.913z"/>
<g>
</g>
<g>
</g>
<g>
</g>
<g>
</g>
<g>
</g>
<g>
</g>
<g>
</g>
<g>
</g>
<g>
</g>
<g>
</g>
<g>
</g>
<g>
</g>
<g>
</g>
<g>
</g>
<g>
</g>
</svg>
